<?xml version="1.0" encoding="UTF-8" standalone="no"?>
<!-- Created with Inkscape (http://www.inkscape.org/) -->

<svg
   xmlns:dc="http://purl.org/dc/elements/1.1/"
   xmlns:cc="http://creativecommons.org/ns#"
   xmlns:rdf="http://www.w3.org/1999/02/22-rdf-syntax-ns#"
   xmlns:svg="http://www.w3.org/2000/svg"
   xmlns="http://www.w3.org/2000/svg"
   xmlns:sodipodi="http://sodipodi.sourceforge.net/DTD/sodipodi-0.dtd"
   xmlns:inkscape="http://www.inkscape.org/namespaces/inkscape"
   width="34.042999"
   height="36.000374"
   id="svg3021"
   version="1.1"
   inkscape:version="0.91 r13725"
   sodipodi:docname="pomodoro_icon.svg"
   inkscape:export-filename="/home/fnlocal/pomodoro.png"
   inkscape:export-xdpi="41.459999"
   inkscape:export-ydpi="41.459999">
  <defs
     id="defs3023" />
  <sodipodi:namedview
     id="base"
     pagecolor="#ffffff"
     bordercolor="#666666"
     borderopacity="1.0"
     inkscape:pageopacity="0.0"
     inkscape:pageshadow="2"
     inkscape:zoom="1.979899"
     inkscape:cx="-44.958744"
     inkscape:cy="-5.6237257"
     inkscape:document-units="px"
     inkscape:current-layer="layer1"
     showgrid="false"
     fit-margin-top="2"
     fit-margin-left="2"
     fit-margin-right="2"
     fit-margin-bottom="2"
     inkscape:window-width="1097"
     inkscape:window-height="688"
     inkscape:window-x="267"
     inkscape:window-y="55"
     inkscape:window-maximized="0" />
  <metadata
     id="metadata3026">
    <rdf:RDF>
      <cc:Work
         rdf:about="">
        <dc:format>image/svg+xml</dc:format>
        <dc:type
           rdf:resource="http://purl.org/dc/dcmitype/StillImage" />
        <dc:title></dc:title>
      </cc:Work>
    </rdf:RDF>
  </metadata>
  <g
     inkscape:label="Layer 1"
     inkscape:groupmode="layer"
     id="layer1"
     transform="translate(-312.89774,-372.65858)">
    <g
       id="g4451"
       transform="matrix(0.21622417,0,0,0.21622417,258.2551,303.34945)">
      <path
         transform="translate(2.0203051,-3.5355339)"
         sodipodi:open="true"
         sodipodi:end="6.2826509"
         sodipodi:start="0"
         d="m 396.98996,395.76303 a 67.17514,54.548241 0 0 1 -67.16617,54.54824 67.17514,54.548241 0 0 1 -67.18411,-54.53366 67.17514,54.548241 0 0 1 67.14822,-54.56282 67.17514,54.548241 0 0 1 67.20205,54.51909"
         sodipodi:ry="54.548241"
         sodipodi:rx="67.17514"
         sodipodi:cy="395.76303"
         sodipodi:cx="329.81482"
         id="path4445"
         style="fill:#ffffff;fill-opacity:1;stroke:none"
         sodipodi:type="arc" />
      <path
         style="fill:#ae2632;fill-opacity:1"
         d="m 339.78529,475.53889 c -0.0873,-1.69317 -0.22918,-1.81691 -0.57333,-0.5 -0.25152,0.9625 -0.92311,1.75 -1.4924,1.75 -0.58732,0 -0.77977,-1.01725 -0.44489,-2.35154 0.76641,-3.05362 -0.32058,-4.09445 -1.96642,-1.88292 -1.18649,1.5943 -1.27872,1.55823 -1.14129,-0.44626 0.0822,-1.1994 0.50609,-1.96034 0.94192,-1.69098 0.43582,0.26935 0.79241,0.0613 0.79241,-0.46229 0,-0.52362 -0.675,-1.21105 -1.5,-1.52764 -1.15259,-0.44229 -1.5,0.21409 -1.5,2.834 0,3.53597 -1.35599,5.37868 -2.54377,3.45681 -0.37508,-0.60689 -0.18117,-1.60424 0.4309,-2.21631 0.61208,-0.61208 1.06067,-2.03537 0.99687,-3.16287 -0.0954,-1.68684 -0.19702,-1.73998 -0.57333,-0.3 -0.25152,0.9625 -0.87432,1.75 -1.38399,1.75 -0.50968,0 -0.92668,0.64844 -0.92668,1.44098 0,0.79254 -0.52647,1.76636 -1.16994,2.16405 -0.74367,0.45961 -0.97584,0.20785 -0.63723,-0.69099 1.57622,-4.18396 1.85241,-5.91404 0.94411,-5.91404 -0.54881,0 -1.14164,0.97725 -1.31739,2.17167 -0.55612,3.7794 -2.45676,3.16082 -2.01134,-0.65461 0.27087,-2.32019 -0.003,-3.51706 -0.80579,-3.51706 -0.66902,0 -0.96291,0.66059 -0.65308,1.46797 0.30982,0.80739 0.10229,1.75291 -0.46119,2.10116 -0.56347,0.34824 -0.81045,1.19096 -0.54884,1.8727 0.26161,0.68175 0.0742,1.87373 -0.41652,2.64885 -0.61777,0.97587 -0.93736,0.17908 -1.03912,-2.59068 l -0.14695,-4 -0.73672,3.5 -0.73672,3.5 -0.14695,-3.5 c -0.0962,-2.2921 -0.43466,-3.0463 -0.98061,-2.18535 -0.45851,0.72305 -0.63425,2.3578 -0.39052,3.63278 0.24373,1.27497 -0.0793,2.64104 -0.71791,3.03571 -0.68036,0.42048 -1.08431,0.15849 -0.97569,-0.63279 0.10195,-0.74269 0.13205,-2.19295 0.0669,-3.22279 -0.098,-1.54817 -0.37826,-1.65685 -1.61848,-0.62756 -1.26313,1.0483 -1.5,0.86235 -1.5,-1.17756 0,-1.33234 -0.55513,-2.97757 -1.23363,-3.65607 -0.97818,-0.97818 -1.48011,-0.55367 -2.42392,2.05 l -1.19031,3.28363 -0.15216,-3 -0.15216,-3 -1.41508,3.5 -1.41509,3.5 0.25957,-4.16588 c 0.29602,-4.75096 -0.80225,-4.76861 -2.17122,-0.0349 -0.72243,2.49807 -0.94544,2.70681 -1.01583,0.95077 -0.0496,-1.2375 -0.56675,-2.25 -1.14921,-2.25 -0.58246,0 -0.80012,0.41891 -0.48369,0.9309 0.31644,0.512 0.16515,1.18441 -0.33619,1.49426 -1.46273,0.90401 -2.08888,-2.05071 -1.13753,-5.36786 0.52971,-1.84698 0.50858,-3.05729 -0.0534,-3.05729 -0.5116,0 -0.93019,0.64844 -0.93019,1.44098 0,0.79254 -0.4801,1.7377 -1.06688,2.10036 -0.64041,0.39579 -0.94021,-0.0803 -0.75,-1.19099 0.21025,-1.22772 -0.28607,-1.85329 -1.475,-1.85909 -0.98553,-0.005 -2.2224,-0.67981 -2.7486,-1.5 -0.66344,-1.03411 -0.76556,-0.49495 -0.33312,1.75874 0.4198,2.18786 0.23665,3.25 -0.56042,3.25 -0.65121,0 -0.931,-0.40939 -0.62175,-0.90976 0.86297,-1.39631 -0.48801,-4.09024 -2.05122,-4.09024 -0.76616,0 -1.39301,-0.48214 -1.39301,-1.07143 0,-0.58928 -0.675,-1.74643 -1.5,-2.57143 -1.33333,-1.33333 -1.5,-1.22084 -1.5,1.01241 0,1.38183 -0.46658,2.80078 -1.03683,3.15321 -0.65599,0.40543 -0.94911,-0.66185 -0.798,-2.90564 0.28704,-4.26206 -0.85957,-5.75554 -2.59581,-3.38109 -1.48669,2.03316 -2.70679,1.30389 -1.81323,-1.0838 0.54088,-1.44527 0.40397,-1.47781 -1.09307,-0.25973 -2.41215,1.96268 -2.97292,0.88925 -1.78431,-3.41552 0.56349,-2.04081 0.78341,-5.12051 0.4887,-6.84377 -0.42761,-2.50039 -0.30363,-2.83025 0.61386,-1.63321 0.94483,1.2327 1.04046,1.1102 0.53666,-0.68745 -0.33717,-1.2031 -0.0543,-3.08215 0.62861,-4.17566 1.15333,-1.84678 1.34234,-1.86901 2.65703,-0.31255 1.23312,1.4599 1.24032,1.39858 0.0559,-0.4762 -0.74772,-1.18352 -3.00197,-4.10852 -5.00944,-6.5 -4.98321,-5.93645 -9.39294,-14.99217 -11.27796,-23.16019 -1.75362,-7.59866 -2.01965,-21.81253 -0.59301,-31.68508 1.07125,-7.41316 7.28379,-20.79036 11.84387,-25.50287 5.07065,-5.24016 11.29661,-10.12051 9.77962,-7.66596 -0.46255,0.74841 -0.1508,0.92983 0.90296,0.52546 0.88517,-0.33967 1.3753,-1.22765 1.08918,-1.97329 -1.04938,-2.73462 3.43617,-3.6842 14.61685,-3.09437 6.1458,0.32422 10.58641,0.19029 10.27724,-0.30995 -0.29941,-0.48446 1.14812,-1.19835 3.21674,-1.58643 3.07654,-0.57716 3.40013,-0.83934 1.77779,-1.44039 -1.81565,-0.67268 -1.74533,-0.82866 0.83177,-1.84494 3.51379,-1.38566 16.86901,-1.51204 14.69751,-0.13908 -1.17832,0.745 -1.03686,0.90648 0.68072,0.7771 1.19246,-0.0898 1.91794,-0.56812 1.61216,-1.06287 -0.61354,-0.99273 1.47632,-0.43693 9.42322,2.5061 2.87578,1.06501 5.12578,2.47014 5,3.1225 -0.27382,1.42005 7.02759,1.13246 12.12387,-0.47755 12.51561,-3.95391 29.70526,9.75471 36.33036,28.97323 2.02024,5.86043 2.30703,8.61334 2.31171,22.19044 0.003,8.525 -0.34482,17.3 -0.7728,19.5 -0.90723,4.66354 -7.43606,19.01793 -9.38602,20.63625 -1.86794,1.55025 -1.66513,2.41334 0.60729,2.58451 1.42329,0.10722 1.77921,-0.30403 1.33044,-1.53719 -0.55816,-1.53372 -0.43483,-1.52781 1.38562,0.0664 2.49621,2.18604 4.17447,2.21052 6.51208,0.095 1.73996,-1.57464 1.82874,-1.47755 1.82874,2 0,3.17475 -0.31026,3.65499 -2.36133,3.65499 -1.9938,0 -2.28522,0.39814 -1.87233,2.558 0.29828,1.56036 0.99193,2.365 1.77857,2.06314 0.70926,-0.27217 1.58086,0.26423 1.93688,1.192 0.8124,2.11707 0.41724,2.76492 -1.42801,2.34118 -1.2107,-0.27803 -1.23147,-0.0734 -0.12756,1.25678 0.87829,1.05828 0.94382,1.5889 0.19622,1.5889 -0.61734,0 -1.12244,0.62838 -1.12244,1.39641 0,0.76802 -1.575,2.77927 -3.5,4.46945 -3.49095,3.06509 -4.39465,5.46318 -2.5,6.63414 1.60253,0.99042 1.16002,2.22489 -1,2.78975 -1.28177,0.33519 -2.00044,1.36464 -2.00122,2.86663 -0.001,2.30841 -0.0388,2.29997 -2.5,-0.56192 -1.45158,-1.68788 -2.5052,-2.3165 -2.51409,-1.5 -0.0125,1.15052 -0.21109,1.13338 -1.09434,-0.0945 -0.91077,-1.26612 -0.99124,-1.22714 -0.51607,0.25 0.30962,0.9625 0.0949,1.75 -0.47723,1.75 -0.5721,0 -0.95817,1.0125 -0.85792,2.25 0.10024,1.2375 0.12555,3.15 0.0563,4.25 -0.10184,1.61637 -0.3023,1.72131 -1.04511,0.5471 -0.50551,-0.7991 -0.66575,-2.71968 -0.3561,-4.26797 0.47176,-2.35879 0.28546,-2.70854 -1.14942,-2.15793 -1.35929,0.52161 -1.43737,0.8315 -0.3786,1.50265 0.99872,0.63309 1.01979,0.84937 0.0839,0.86084 -0.6875,0.008 -1.25,0.89948 -1.25,1.98013 0,1.08065 -0.92163,2.45805 -2.04806,3.0609 -1.41773,0.75875 -1.85864,1.69288 -1.43261,3.03518 0.43031,1.3558 0.14396,1.9391 -0.95194,1.9391 -0.86217,8e-5 -1.56749,-0.4196 -1.56749,-0.93253 0,-0.51294 -0.87108,-1.20908 -1.93572,-1.54699 -1.06465,-0.33791 -2.13745,-1.38073 -2.384,-2.31739 -0.24655,-0.93665 -0.53211,0.32199 -0.63456,2.79699 -0.13923,3.36329 -0.38793,3.99479 -0.98452,2.5 -0.43903,-1.1 -0.69428,-3.0125 -0.56723,-4.25 0.38044,-3.70556 -1.21116,-2.54044 -2.04906,1.5 l -0.77767,3.75 -0.67653,-3 c -0.68077,-3.01885 -1.32959,-2.4586 -2.31616,2 -0.2434,1.1 -0.49475,0.1243 -0.55855,-2.16821 -0.21828,-7.84328 -1.21629,-8.25755 -4.26393,-1.76996 -1.53424,3.26599 -2.80361,5.15067 -2.8208,4.18817 -0.0404,-2.2593 -4.03127,-6.46674 -4.03127,-4.25 0,0.825 0.45,1.5 1,1.5 0.55,0 1,0.9 1,2 0,1.1 -0.47656,2 -1.05902,2 -0.58246,0 -0.7809,-0.45 -0.44098,-1 0.33992,-0.55 -0.0835,-1 -0.94098,-1 -0.85746,0 -1.58442,0.5625 -1.61546,1.25 -0.031,0.6875 -0.59355,-0.325 -1.25,-2.25 -1.37008,-4.01762 -3.34723,-3.84597 -2.87959,0.25 0.17268,1.5125 0.0602,2.75 -0.25,2.75 -0.31018,0 -0.61617,-1.0125 -0.67997,-2.25 z m -2.10414,-39.7423 c -1.25392,-2.19576 -2.50486,-3.97868 -2.77986,-3.96205 -0.275,0.0166 -1.73322,1.81317 -3.2405,3.9923 l -2.74049,3.96205 5.52035,0 5.52036,0 -2.27986,-3.9923 z m -1.77986,-17.0077 c 0,-2.33333 -0.44444,-3 -2,-3 -1.55556,0 -2,0.66667 -2,3 0,2.33333 0.44444,3 2,3 1.55556,0 2,-0.66667 2,-3 z m -38.18664,-4.17299 c -0.40865,-4.13783 -2.81336,-5.0584 -2.81336,-1.07701 0,1.60417 0.3,3.21667 0.66667,3.58333 1.5291,1.52911 2.44017,0.4654 2.14669,-2.50632 z m 77.89454,-2.13491 c 0.25574,-1.90965 -0.0854,-2.6921 -1.17369,-2.6921 -1.04723,0 -1.53421,0.9787 -1.53421,3.08333 0,3.7965 2.18945,3.48017 2.7079,-0.39123 z m -37.7079,-2.02728 c 0,-4.90079 -5.25753,-6.38846 -7.23548,-2.04735 -1.05152,2.30784 -0.9197,2.83845 1.1143,4.48549 2.84387,2.30282 6.12118,0.99743 6.12118,-2.43814 z m -5,-0.0815 c 0,-1.6805 0.54853,-2.58333 1.56955,-2.58333 1.04234,0 1.46221,0.72946 1.25,2.17167 -0.47108,3.2015 -2.81955,3.54438 -2.81955,0.41166 z m -29.64112,-1.07617 c 0.31899,-0.83129 -0.40911,-2.44769 -1.64301,-3.64749 -1.67407,-1.62782 -1.79581,-2.00701 -0.4979,-1.55084 0.94489,0.3321 1.98395,0.17348 2.30902,-0.3525 0.32507,-0.52598 0.22699,-0.96247 -0.21797,-0.96998 -0.44496,-0.008 -1.82152,-0.285 -3.05902,-0.61664 -1.9137,-0.51285 -2.25,-0.21188 -2.25,2.01366 0,1.6116 0.55347,2.61663 1.44098,2.61663 0.79254,0 1.75966,0.51563 2.14916,1.14584 0.50336,0.81447 -0.10846,0.94088 -2.11562,0.43712 -2.48226,-0.62301 -2.66691,-0.5197 -1.52671,0.85416 1.64464,1.98167 4.66252,2.02073 5.41107,0.07 z m -7.35888,-2.64691 c 0,-1.17686 -0.7875,-2.7886 -1.75,-3.58163 -1.66667,-1.37322 -1.66667,-1.41568 0,-0.89163 0.9625,0.30264 1.75,0.16686 1.75,-0.30173 0,-1.02427 -3.65108,-2.10084 -4.44209,-1.30982 -1.31553,1.31552 -0.39164,4.03479 1.54271,4.54063 1.26423,0.3306 1.81653,1.00898 1.38713,1.70376 -0.51378,0.83132 -1.01778,0.85016 -1.80062,0.0673 -1.65343,-1.65342 -3.10683,-1.29775 -1.68713,0.41288 1.90432,2.29456 5,1.89846 5,-0.63976 z m 80.78694,-2.1779 c -0.18393,-1.20029 -0.88624,-2.06984 -1.56068,-1.93234 -0.67444,0.1375 -1.22626,-0.2 -1.22626,-0.75 0,-0.55 0.70156,-1 1.55902,-1 0.85746,0 1.28015,-0.45122 0.93931,-1.0027 -1.0077,-1.6305 -4.49833,0.80987 -4.49833,3.14487 0,1.43076 0.46412,1.89371 1.5,1.4962 0.9422,-0.36155 1.5,0.0103 1.5,1 0,0.9897 -0.5578,1.36156 -1.5,1 -1.50334,-0.57688 -2.05361,0.47469 -0.86852,1.65978 1.31726,1.31726 4.48855,-1.44219 4.15546,-3.61581 z m 19.72477,-4.5749 c 0.2163,-1.70909 -0.0353,-3.10744 -0.55922,-3.10744 -0.52387,0 -0.95249,-0.70156 -0.95249,-1.55902 0,-0.85746 0.42726,-1.29495 0.94947,-0.97221 1.504,0.92952 2.51293,-6.41589 1.07048,-7.79347 -0.9679,-0.92437 -1.08445,-0.48141 -0.54585,2.0747 0.42879,2.03497 0.29299,3.25 -0.36326,3.25 -0.57644,0 -0.78905,-0.675 -0.47247,-1.5 0.31659,-0.825 0.11496,-1.5 -0.44805,-1.5 -1.63675,0 -1.78627,1.68337 -0.75639,8.51594 1.04252,6.91653 1.46391,7.4421 2.07778,2.5915 z M 274.72355,396.4013 c 0.31668,-2.68604 -1.21873,-5.61241 -2.94471,-5.61241 -1.03034,0 -1.19748,7.34674 -0.19005,8.35417 1.30404,1.30404 2.81341,-0.0161 3.13476,-2.74176 z m -4.99509,-3.65576 c -0.17076,-4.35789 -1.23615,-5.9392 -2.23964,-3.32416 -0.34212,0.89155 -0.10015,2.24984 0.53772,3.01842 0.63786,0.76858 0.87063,1.68655 0.51725,2.03992 -0.35338,0.35338 -0.6425,0.1175 -0.6425,-0.52416 0,-0.64167 -0.46583,-1.16667 -1.03518,-1.16667 -0.70185,0 -0.69053,0.64401 0.0352,2 1.72698,3.2269 2.99769,2.30849 2.82717,-2.04335 z m 43.87097,-11.61241 c 0.75597,-1.97001 -2.94891,-5.34424 -5.86794,-5.34424 -1.07153,0 -1.72972,-0.35357 -1.46264,-0.78571 0.26708,-0.43215 -0.38136,-0.78572 -1.44098,-0.78572 -2.31434,0 -2.44667,0.90848 -0.42658,2.92857 0.825,0.825 1.5,1.95979 1.5,2.52174 0,2.81283 6.69224,4.08671 7.69814,1.46536 z"
         id="path3019"
         inkscape:connector-curvature="0" />
      <path
         inkscape:connector-curvature="0"
         id="path4390"
         d="m 391.22816,354.12495 c -0.18761,0.1876 0.29918,2.18544 1.09375,4.4375 1.01115,2.86588 1.11689,4.21104 0.34375,4.46875 -0.71749,0.23916 -0.45431,1.46127 0.75,3.5 2.15155,3.64228 3.76386,3.33526 2.9375,-0.5625 -0.67595,-3.18827 -4.6349,-12.33385 -5.125,-11.84375 z m -4.84375,7.84375 c -0.21641,0.10058 -0.13637,0.61522 0.4375,1.6875 0.55,1.02768 0.6744,2.22076 0.28125,2.65625 -0.39315,0.43549 -0.0554,0.41794 0.71875,-0.0313 1.07323,-0.62272 1.2588,-0.30592 0.84375,1.28125 -0.41429,1.58423 -0.18033,1.92169 1,1.46875 0.96722,-0.37116 1.32614,-0.17938 0.90625,0.5 -0.37028,0.59913 -0.109,1.70566 0.59375,2.4375 1.39357,1.45127 1.49769,5.19889 0.21875,8.21875 -0.57403,1.35545 -0.48475,1.73079 0.34375,1.21875 0.64347,-0.39769 1.1875,-1.39496 1.1875,-2.1875 0,-0.79254 0.45,-1.4375 1,-1.4375 1.75028,0 1.05347,-5.37382 -1.15625,-9 -2.22653,-3.65377 -5.72576,-7.11423 -6.375,-6.8125 z m 10.21875,23.15625 c -0.8027,0.097 -1.73821,0.68882 -2.6875,1.8125 -1.58937,1.88134 -1.85026,3.15219 -1.3125,6.34375 0.37069,2.2 0.77475,5.125 0.90625,6.5 0.1315,1.375 0.32902,2.95 0.4375,3.5 0.10848,0.55 0.41415,0.13834 0.6875,-0.9375 0.27336,-1.07584 -0.0452,-4.31735 -0.6875,-7.1875 -1.03109,-4.60743 -0.94399,-5.44881 0.625,-7.28125 2.36214,-2.75878 3.12624,-2.63615 3.625,0.65625 l 0.40625,2.75 0.15625,-2.78125 c 0.12639,-2.34631 -0.81842,-3.5367 -2.15625,-3.375 z m -123.4375,4.75 c -0.0572,0.0468 0.21607,0.61943 0.75,1.71875 1.39451,2.87119 0.90603,7.39375 -0.84375,7.96875 -0.72384,0.23786 -1.54256,-0.50449 -1.84375,-1.65625 -0.30119,-1.15176 -1.02285,-1.82159 -1.59375,-1.46875 -0.57091,0.35284 -1.63344,-0.17336 -2.375,-1.1875 -0.74157,-1.01415 -1.34375,-1.35924 -1.34375,-0.75 0,0.60925 1.12647,1.96038 2.5,2.96875 1.41896,1.04173 2.56545,2.97843 2.6875,4.5 0.11815,1.47285 0.58896,2.46085 1.03125,2.1875 0.4423,-0.27335 0.5311,-0.9753 0.1875,-1.53125 -0.34359,-0.55595 0.30913,-1.65652 1.46875,-2.46875 2.51636,-1.76253 2.79666,-6.14887 0.5625,-8.9375 -0.74349,-0.92801 -1.1303,-1.3905 -1.1875,-1.34375 z m 102.5625,8.21875 c -0.80315,-0.0588 -1.75135,0.12618 -2.625,0.59375 -2.28803,1.22452 -3.3212,4.31271 -2.09375,6.25 0.58996,0.93115 0.8645,0.36297 0.875,-1.78125 0.0116,-2.38312 0.5407,-3.27993 2.21875,-3.71875 3.00405,-0.78557 3.54817,0.0567 1.21875,1.875 -1.30002,1.01475 -1.43344,1.42843 -0.4375,1.25 2.08975,-0.37439 2.47203,3.61336 0.5,5.25 -1.32504,1.09972 -2.01084,1.12133 -3.65625,0.0937 -1.65981,-1.03652 -1.88958,-1.02292 -1.21875,0.0625 0.44979,0.72778 0.7846,2.43717 0.75,3.8125 -0.0507,2.01734 0.0159,2.10802 0.34375,0.375 0.2235,-1.18149 1.27487,-2.37673 2.34375,-2.65625 1.65376,-0.43247 1.96405,0.0136 2.03125,3.125 0.0434,2.01101 0.29538,3.12535 0.5625,2.46875 0.26711,-0.65657 1.26053,-0.9431 2.1875,-0.625 1.54722,0.53092 1.55179,0.48974 0.0625,-0.78125 -2.24396,-1.91503 -2.96255,-5.59402 -1.34375,-6.9375 0.89117,-0.73961 1.06375,-1.83916 0.53125,-3.28125 -0.44124,-1.1949 -0.58552,-2.75029 -0.34375,-3.4375 0.38715,-1.10045 -0.56767,-1.8395 -1.90625,-1.9375 z m -113.59375,0.21875 c -0.43497,-0.0447 -0.0496,1.62459 1.21875,4.59375 5.12441,11.99564 26.55859,22.08413 52.8125,24.84375 36.94005,3.88287 74.30068,-6.79936 81.84375,-23.40625 2.5947,-5.71251 2.27788,-7.79975 -0.5,-3.28125 -6.50112,10.57472 -22.74339,18.61561 -44.09375,21.78125 -10.0008,1.48292 -32.72965,1.48425 -42,0 -22.94069,-3.67297 -41.49745,-12.45171 -47.625,-22.5 -0.83163,-1.36375 -1.39527,-2.00441 -1.65625,-2.03125 z m 126.59375,5.6875 c -0.18078,10e-4 -0.6139,0.55919 -1.3125,1.78125 -0.78602,1.375 -1.44925,1.8665 -1.46875,1.09375 -0.0267,-1.05875 -0.54996,-0.9254 -2.125,0.5 -1.14957,1.04035 -2.84606,1.89925 -3.75,1.90625 -0.90393,0.007 -1.6881,0.675 -1.75,1.5 -0.0646,0.8601 0.0719,0.96675 0.3125,0.25 0.69377,-2.06668 2.2508,-1.40907 2.375,1 0.0883,1.71224 0.24394,1.84105 0.59375,0.5 0.25283,-0.96924 0.86663,-1.50169 1.375,-1.1875 0.50838,0.3142 0.9375,-0.36754 0.9375,-1.5 0,-1.13246 0.4796,-2.0625 1.09375,-2.0625 0.62432,0 0.88616,0.88181 0.59375,2 -0.83389,3.1888 0.26231,2.31616 1.84375,-1.46875 1.14992,-2.75212 1.58255,-4.31458 1.28125,-4.3125 z m -86,0.78125 c -0.65972,0 -0.61556,0.57002 0.15625,1.5 0.67883,0.81799 0.97552,2.16799 0.65625,3 -0.74786,1.94888 -4.03896,1.94871 -5.65625,0 -0.87821,-1.05817 -1.61096,-1.21191 -2.46875,-0.5 -0.86675,0.71934 -2.04217,0.38378 -4,-1.15625 -2.70657,-2.12899 -2.73846,-2.14714 -1.65625,-0.125 0.62813,1.17367 2.73602,2.46514 4.875,2.96875 2.89382,0.68133 3.88221,1.45082 4.21875,3.34375 0.42746,2.40433 0.44105,2.41209 0.8125,0.21875 0.20957,-1.2375 0.96809,-2.25 1.6875,-2.25 2.08827,0 3.76989,-2.70873 3.0625,-4.9375 -0.3575,-1.1264 -1.10722,-2.0625 -1.6875,-2.0625 z m 32.71875,0.0313 c -0.5775,0.0167 -0.24375,0.50189 0.71875,1.0625 2.17328,1.26582 2.30879,6.20291 0.21875,7.9375 -1.19792,0.99419 -2.09236,1.01988 -4.125,0.0937 -2.30738,-1.05131 -2.5305,-1.60407 -2,-4.90625 0.41026,-2.55378 0.28251,-3.25004 -0.375,-2.21875 -1.32874,2.08409 -1.22633,5.36742 0.21875,6.8125 0.66633,0.66633 1.18775,2.91258 1.15625,4.96875 -0.0523,3.41806 -0.0275,3.44019 0.34375,0.46875 0.29609,-2.36968 0.94227,-3.25 2.3125,-3.25 1.37023,0 1.98516,0.88033 2.28125,3.25 0.37126,2.97144 0.39605,2.94931 0.34375,-0.46875 -0.0315,-2.05617 0.48992,-4.30242 1.15625,-4.96875 2.48541,-2.48541 0.84613,-8.87095 -2.25,-8.78125 z m 52.96875,21.46875 -3.46875,3 c -1.90352,1.64884 -4.92471,4.40744 -6.71875,6.125 -1.79404,1.71755 -5.77255,4.14118 -8.8125,5.375 -3.03994,1.23383 -5.5,2.69976 -5.5,3.25 0,0.55027 -1.14312,0.76535 -2.53125,0.5 -1.38812,-0.26536 -2.76817,-0.07 -3.0625,0.40625 -0.29434,0.47624 -1.85121,0.84375 -3.46875,0.84375 -1.61754,0 -2.9375,0.41643 -2.9375,0.90625 0,0.48983 -1.4625,1.12911 -3.25,1.4375 -1.7875,0.30839 -5.95,1.02491 -9.25,1.59375 -3.3,0.56884 -7.35,0.82815 -9,0.5625 -2.52704,-0.40687 -2.6847,-0.32434 -1,0.53125 1.51752,0.77069 0.80376,0.89323 -2.90625,0.5 -2.68927,-0.28504 -5.83927,-0.52325 -7,-0.53125 -1.53831,-0.0112 -1.754,-0.25837 -0.78125,-0.875 0.99611,-0.63142 0.74251,-0.97978 -1,-1.4375 -1.28399,-0.33727 -2.47292,-0.19222 -2.65625,0.34375 -0.18334,0.53596 -1.53334,0.97675 -3,0.96875 -1.61905,-0.009 -2.19981,-0.31657 -1.46875,-0.78125 0.69726,-0.44318 -1.61786,-1.2957 -5.5,-2.03125 -3.68725,-0.69864 -7.6881,-1.92174 -8.90625,-2.71875 -1.21815,-0.79701 -2.73511,-1.46875 -3.34375,-1.46875 -0.60863,0 -1.76369,-0.66995 -2.59375,-1.5 -1.79706,-1.79706 -3.97255,-0.94977 -2.40625,0.9375 0.57193,0.68914 0.73689,1.54435 0.375,1.90625 -0.3619,0.36189 -0.11163,0.65625 0.5625,0.65625 0.67413,0 0.92846,0.50163 0.5625,1.09375 -0.82818,1.34004 3.21221,5.24077 4.5625,4.40625 0.54288,-0.33552 1,-0.15895 1,0.40625 0,0.5652 0.675,0.78533 1.5,0.46875 0.97378,-0.37368 1.5,0.0123 1.5,1.125 0,1.11267 0.52622,1.52993 1.5,1.15625 1.02579,-0.39363 1.5,0.0359 1.5,1.40625 0,1.69392 0.30929,1.84234 2,0.9375 1.54604,-0.82742 2,-0.74284 2,0.3125 0,0.94103 1.1652,1.30419 3.75,1.1875 2.0625,-0.0931 4.2,0.11091 4.75,0.46875 0.55,0.35784 1.675,0.60145 2.5,0.53125 0.825,-0.0702 2.2875,0.25048 3.25,0.71875 1.14917,0.55909 1.75,0.44768 1.75,-0.3125 0,-0.75566 0.43405,-0.82608 1.25,-0.21875 0.6875,0.51172 2.375,0.85905 3.75,0.75 1.375,-0.10905 3.1275,0.1374 3.90625,0.5625 0.77876,0.42512 2.57876,0.46 4,0.0625 1.42125,-0.3975 3.80354,-0.4052 5.28125,0 1.4777,0.40515 2.8277,0.60633 3,0.4375 0.17229,-0.16884 3.60511,-0.57508 7.65625,-0.90625 4.05115,-0.33116 7.76365,-0.85566 8.25,-1.15625 0.48636,-0.30058 0.90625,-0.0524 0.90625,0.5625 0,0.61492 0.42082,0.83864 0.96875,0.5 1.22501,-0.75709 4.41367,-1.50921 8.96875,-2.125 1.89907,-0.25672 4.03657,-0.93916 4.75,-1.53125 0.71343,-0.59214 1.3125,-0.81609 1.3125,-0.5 0,0.31608 1.18521,-0.54294 2.65625,-1.90625 2.05946,-1.90864 2.89592,-2.20166 3.59375,-1.21875 0.58095,0.81827 0.69367,0.20434 0.3125,-1.71875 -0.47588,-2.40088 -0.3823,-2.65052 0.46875,-1.25 1.17425,1.93237 2.96875,2.34613 2.96875,0.6875 0,-0.58246 -0.45,-0.77742 -1,-0.4375 -0.57555,0.35571 -1.02725,-0.57078 -1.03125,-2.1875 -0.004,-1.54496 -0.876,-4.1625 -1.96875,-5.8125 -2.34119,-3.53509 -2.39204,-3.90484 -0.75,-5.71875 0.6875,-0.75946 2.825,-3.17758 4.75,-5.34375 l 3.5,-3.9375 z m -54.53125,5.1875 c -0.0666,0.0259 -0.16554,0.0938 -0.28125,0.1875 -2.55284,2.06649 -5.93026,7.97376 -5.21875,9.125 1.22955,1.98946 12.53125,1.03153 12.53125,-1.0625 0,-0.47754 -1.15169,-0.44264 -2.5625,0.0937 -2.76698,1.05201 -9.4375,1.33935 -9.4375,0.40625 0,-0.31341 1.43017,-2.67591 3.1875,-5.25 1.53766,-2.25234 2.24712,-3.68103 1.78125,-3.5 z"
         style="fill:#333333;fill-opacity:1;stroke:none" />
      <path
         inkscape:connector-curvature="0"
         id="path4373"
         d="m 319.09613,331.16697 c -0.71006,0.0759 -0.16818,1.23061 1.875,5.28125 3.13294,6.21109 3.91727,10.38132 1.3125,6.9375 -1.4348,-1.897 -1.46875,-1.89132 -1.46875,0.25 0,3.01066 -2.3437,2.7906 -8.9375,-0.84375 -4.5121,-2.48696 -13.8197,-5.96875 -15.96875,-5.96875 0.1678,0.25597 2.89633,1.99754 6.4375,4.0625 3.84127,2.23996 7.93158,4.97736 9.09375,6.0625 1.16218,1.08515 2.51217,1.81886 3,1.65625 0.48782,-0.16261 1.06869,0.16875 1.3125,0.71875 0.24382,0.55 -0.88118,1.24401 -2.5,1.53125 -2.61094,0.46328 -2.29426,0.65514 2.6875,1.78125 3.08875,0.6982 6.46375,1.89669 7.5,2.65625 1.05098,0.77035 3.03365,1.13576 4.5,0.84375 1.4458,-0.28791 2.91833,-0.0679 3.25,0.46875 0.33168,0.53665 -0.54962,0.96875 -1.9375,0.96875 -1.38789,0 -2.79686,0.26561 -3.125,0.59375 -0.32814,0.32814 1.30509,4.51157 3.59375,9.28125 2.28865,4.76968 4.32823,8.46657 4.53125,8.25 0.20301,-0.21658 -0.0382,-2.625 -0.53125,-5.375 -1.76188,-9.82785 -1.96772,-12.02598 -1.1875,-13.09375 0.43507,-0.59542 4.38125,-2.85505 8.78125,-5.03125 6.62508,-3.27671 7.97377,-4.32109 7.78125,-6.125 -0.16626,-1.55797 1.06614,-3.19225 4.375,-5.71875 6.19447,-4.72983 4.28494,-4.48448 -4.03125,0.53125 -12.31037,7.42473 -15.10876,7.36294 -19.4375,-0.53125 -2.69245,-4.91013 -5.91323,-7.85921 -9.78125,-8.96875 -0.50223,-0.14406 -0.88831,-0.24403 -1.125,-0.21875 z"
         style="fill:#007615;fill-opacity:1;stroke:none" />
      <path
         id="path4435"
         d="m 392.53125,421.53125 c -1.35228,2.69892 -2.60282,4.84321 -3.28125,5.40625 -1.0353,0.85922 -1.42423,1.50127 -1.1875,1.9375 1.77731,-2.33477 3.36865,-4.79369 4.78125,-7.34375 -0.0523,-7e-5 -0.10392,0 -0.15625,0 -0.0523,0 -0.10394,-7e-5 -0.15625,0 z m -4.46875,7.34375 c -12.40243,16.29248 -33.2901,27 -57,27 -20.15806,0 -38.27383,-7.73387 -50.875,-20.0625 0.68037,1.10351 0.56991,1.04218 -0.46875,-0.1875 -1.31469,-1.55646 -1.50292,-1.53428 -2.65625,0.3125 -0.68291,1.09351 -0.99342,2.95315 -0.65625,4.15625 0.5038,1.79765 0.41358,1.9202 -0.53125,0.6875 -0.91749,-1.19704 -1.02136,-0.84414 -0.59375,1.65625 0.29471,1.72326 0.0635,4.80294 -0.5,6.84375 -1.18861,4.30477 -0.6309,5.36893 1.78125,3.40625 1.49704,-1.21808 1.63463,-1.19527 1.09375,0.25 -0.89356,2.38769 0.32581,3.12691 1.8125,1.09375 1.73624,-2.37445 2.88079,-0.88706 2.59375,3.375 -0.15111,2.24379 0.15651,3.31168 0.8125,2.90625 0.57025,-0.35243 1.03125,-1.77442 1.03125,-3.15625 0,-2.23325 0.16667,-2.33333 1.5,-1 0.825,0.825 1.5,1.97322 1.5,2.5625 0,0.58929 0.60884,1.0625 1.375,1.0625 1.56321,0 2.92547,2.69744 2.0625,4.09375 -0.30925,0.50037 -0.0262,0.90625 0.625,0.90625 0.79707,0 0.9823,-1.06214 0.5625,-3.25 -0.43244,-2.25369 -0.31969,-2.78411 0.34375,-1.75 0.5262,0.82019 1.76447,1.495 2.75,1.5 1.18893,0.006 1.679,0.61603 1.46875,1.84375 -0.19021,1.11069 0.10959,1.61454 0.75,1.21875 0.58678,-0.36266 1.0625,-1.33246 1.0625,-2.125 0,-0.79254 0.4259,-1.4375 0.9375,-1.4375 0.56198,0 0.56096,1.21552 0.0313,3.0625 -0.95135,3.31715 -0.30648,6.27901 1.15625,5.375 0.50134,-0.30985 0.62894,-0.988 0.3125,-1.5 -0.31643,-0.51199 -0.0825,-0.9375 0.5,-0.9375 0.58246,0 1.10665,1.0125 1.15625,2.25 0.0704,1.75604 0.27757,1.56057 1,-0.9375 1.36897,-4.73371 2.48352,-4.71971 2.1875,0.0313 l -0.28125,4.15625 1.4375,-3.5 1.40625,-3.5 0.15625,3 0.15625,3 L 309.25,468 c 0.94381,-2.60367 1.42807,-3.00943 2.40625,-2.03125 0.6785,0.6785 1.25,2.32391 1.25,3.65625 0,2.03991 0.23687,2.20455 1.5,1.15625 1.24022,-1.02929 1.527,-0.92317 1.625,0.625 0.0652,1.02984 0.008,2.47606 -0.0937,3.21875 -0.10862,0.79128 0.31964,1.07673 1,0.65625 0.63861,-0.39467 0.96248,-1.75628 0.71875,-3.03125 -0.24373,-1.27498 -0.0835,-2.9332 0.375,-3.65625 0.54595,-0.86095 0.9038,-0.1046 1,2.1875 l 0.125,3.5 0.75,-3.5 0.71875,-3.5 0.15625,4 c 0.10176,2.76976 0.41348,3.56962 1.03125,2.59375 0.49072,-0.77512 0.69911,-1.9745 0.4375,-2.65625 -0.26161,-0.68174 -0.0322,-1.52676 0.53125,-1.875 0.56348,-0.34825 0.77857,-1.28636 0.46875,-2.09375 -0.30983,-0.80738 -0.0128,-1.46875 0.65625,-1.46875 0.80279,0 1.08337,1.21106 0.8125,3.53125 -0.44542,3.81543 1.44388,4.43565 2,0.65625 0.17575,-1.19442 0.76369,-2.1875 1.3125,-2.1875 0.9083,0 0.63872,1.72229 -0.9375,5.90625 -0.33861,0.89884 -0.11867,1.17836 0.625,0.71875 0.64347,-0.39769 1.1875,-1.39496 1.1875,-2.1875 0,-0.79254 0.39657,-1.4375 0.90625,-1.4375 0.50967,0 1.15473,-0.7875 1.40625,-1.75 0.37631,-1.43998 0.4671,-1.37434 0.5625,0.3125 0.0638,1.1275 -0.38792,2.54417 -1,3.15625 -0.61207,0.61207 -0.81258,1.61186 -0.4375,2.21875 1.18778,1.92187 2.5625,0.0672 2.5625,-3.46875 0,-2.61991 0.34741,-3.25479 1.5,-2.8125 0.825,0.31659 1.5,1.00763 1.5,1.53125 0,0.52359 -0.37668,0.70685 -0.8125,0.4375 -0.43583,-0.26936 -0.8553,0.4881 -0.9375,1.6875 -0.13743,2.00449 -0.0302,2.06305 1.15625,0.46875 1.64584,-2.21153 2.73516,-1.17862 1.96875,1.875 -0.33488,1.33429 -0.14982,2.34375 0.4375,2.34375 0.56929,0 1.24848,-0.7875 1.5,-1.75 0.34415,-1.31691 0.4752,-1.19317 0.5625,0.5 0.0638,1.2375 0.37732,2.25 0.6875,2.25 0.3102,0 0.42268,-1.2375 0.25,-2.75 -0.46764,-4.09597 1.50492,-4.26762 2.875,-0.25 0.65645,1.925 1.219,2.9375 1.25,2.25 0.031,-0.6875 0.76754,-1.25 1.625,-1.25 0.85748,0 1.27742,0.45 0.9375,1 -0.33992,0.55 -0.14496,1 0.4375,1 0.58246,0 1.0625,-0.9 1.0625,-2 0,-1.1 -0.45,-2 -1,-2 -0.55,0 -1,-0.675 -1,-1.5 0,-2.21674 3.99085,1.9907 4.03125,4.25 0.0172,0.9625 1.27826,-0.92151 2.8125,-4.1875 3.04764,-6.48759 4.06297,-6.06203 4.28125,1.78125 0.0638,2.29251 0.28785,3.25625 0.53125,2.15625 0.98657,-4.4586 1.66298,-5.01885 2.34375,-2 l 0.65625,3 0.78125,-3.75 c 0.8379,-4.04044 2.44294,-5.20556 2.0625,-1.5 -0.12705,1.2375 0.12347,3.15 0.5625,4.25 0.59659,1.49479 0.82952,0.86329 0.96875,-2.5 0.10245,-2.475 0.4097,-3.7179 0.65625,-2.78125 0.24655,0.93666 1.31035,1.97459 2.375,2.3125 1.06464,0.33791 1.9375,1.01831 1.9375,1.53125 0,0.51293 0.70033,0.93758 1.5625,0.9375 1.0959,0 1.36781,-0.5817 0.9375,-1.9375 -0.42603,-1.3423 0.0198,-2.2725 1.4375,-3.03125 1.12643,-0.60285 2.0625,-1.98185 2.0625,-3.0625 0,-1.08065 0.5625,-1.96075 1.25,-1.96875 0.93589,-0.0115 0.90497,-0.24191 -0.0937,-0.875 -1.05877,-0.67115 -0.98429,-0.97839 0.375,-1.5 1.43488,-0.55061 1.62801,-0.20254 1.15625,2.15625 -0.30965,1.54829 -0.16176,3.48215 0.34375,4.28125 0.74281,1.17421 0.96066,1.05387 1.0625,-0.5625 0.0693,-1.1 0.0377,-3.0125 -0.0625,-4.25 -0.10025,-1.2375 0.3029,-2.25 0.875,-2.25 0.57213,0 0.77837,-0.7875 0.46875,-1.75 -0.47517,-1.47714 -0.41077,-1.51612 0.5,-0.25 0.88325,1.22788 1.08125,1.24427 1.09375,0.0937 0.009,-0.8165 1.07967,-0.18788 2.53125,1.5 2.4612,2.86189 2.499,2.87091 2.5,0.5625 7.8e-4,-1.50199 0.71823,-2.50856 2,-2.84375 2.16002,-0.56486 2.60253,-1.82208 1,-2.8125 -1.89465,-1.17096 -0.99095,-3.55991 2.5,-6.625 1.925,-1.69018 3.5,-3.70073 3.5,-4.46875 0,-0.76803 0.50766,-1.40625 1.125,-1.40625 0.7476,0 0.65954,-0.53547 -0.21875,-1.59375 -1.10391,-1.33018 -1.05445,-1.52803 0.15625,-1.25 1.84525,0.42374 2.21865,-0.22668 1.40625,-2.34375 -0.35602,-0.92777 -1.22824,-1.45967 -1.9375,-1.1875 -0.78664,0.30186 -1.48297,-0.50214 -1.78125,-2.0625 -0.41289,-2.15986 -0.1188,-2.5625 1.875,-2.5625 2.05107,0 2.375,-0.4815 2.375,-3.65625 0,-3.47755 -0.10379,-3.57464 -1.84375,-2 -2.33761,2.11552 -4.00379,2.09229 -6.5,-0.0937 -1.82045,-1.59421 -1.93316,-1.59622 -1.375,-0.0625 0.44877,1.23316 0.0795,1.63847 -1.34375,1.53125 -1.01294,-0.0763 -1.59086,-0.27416 -1.78125,-0.625 z m -107.875,6.9375 c -0.12738,-0.2066 -0.25072,-0.39186 -0.4375,-0.6875 -0.74772,-1.18352 -2.99253,-4.10852 -5,-6.5 -1.10865,-1.32073 -2.16473,-2.81861 -3.1875,-4.40625 -0.24067,-0.0121 -0.47734,-0.0206 -0.71875,-0.0313 2.61238,4.19528 5.74834,8.10736 9.34375,11.625 z"
         style="fill:#333333;fill-opacity:1;stroke:none"
         inkscape:connector-curvature="0" />
    </g>
  </g>
</svg>
